<?xml version="1.0" encoding="utf-8"?>
<!-- Generator: Adobe Illustrator 19.2.0, SVG Export Plug-In . SVG Version: 6.00 Build 0)  -->
<svg version="1.1" id="Layer_1" xmlns="http://www.w3.org/2000/svg" xmlns:xlink="http://www.w3.org/1999/xlink" x="0px" y="0px"
	 viewBox="0 0 84.7 68.7" style="enable-background:new 0 0 84.7 68.7;" xml:space="preserve">
<style type="text/css">
	.st0{fill:#FFFFFF;}
</style>
<g>
	<path class="st0" d="M52.6,17.2L11.2,58.6c-1,1-2.7,1-3.8,0l0,0c-1-1-1-2.7,0-3.8l41.5-41.5c1-1,2.7-1,3.8,0l0,0
		C53.7,14.4,53.7,16.1,52.6,17.2z"/>
	<path class="st0" d="M49.7,59.5L8.2,18c-1-1-1-2.7,0-3.8l0,0c1-1,2.7-1,3.8,0l41.5,41.5c1,1,1,2.7,0,3.8l0,0
		C52.4,60.5,50.7,60.5,49.7,59.5z"/>
</g>
</svg>
