<?xml version="1.0" encoding="utf-8"?>
<!-- Generator: Adobe Illustrator 19.1.0, SVG Export Plug-In . SVG Version: 6.00 Build 0)  -->
<svg version="1.1" id="Layer_1" xmlns="http://www.w3.org/2000/svg" xmlns:xlink="http://www.w3.org/1999/xlink" x="0px" y="0px"
	 viewBox="0 0 216 216" style="enable-background:new 0 0 216 216;" xml:space="preserve">
<style type="text/css">
	.st0{fill:#EAEAEA;}
</style>
<g>
	<g>
		<path class="st0" d="M75.98,107.72c-1.524,0-2.76-1.245-2.76-2.778c0-1.533,1.235-2.779,2.76-2.779
			c1.521,0,2.763,1.246,2.763,2.779C78.743,106.475,77.501,107.72,75.98,107.72z"/>
		<path class="st0" d="M75.98,103.016c1.053,0,1.913,0.865,1.913,1.926c0,1.062-0.86,1.926-1.913,1.926
			c-1.053,0-1.91-0.864-1.91-1.926C74.07,103.881,74.928,103.016,75.98,103.016 M75.98,101.31c-1.996,0-3.611,1.626-3.611,3.632
			c0,2.004,1.615,3.63,3.611,3.63c1.998,0,3.612-1.626,3.612-3.63C79.593,102.936,77.979,101.31,75.98,101.31L75.98,101.31z"/>
	</g>
	<g>
		<ellipse class="st0" cx="132.646" cy="104.941" rx="2.761" ry="2.779"/>
		<path class="st0" d="M132.646,103.016c1.056,0,1.912,0.865,1.912,1.926c0,1.062-0.856,1.926-1.912,1.926
			c-1.052,0-1.91-0.864-1.91-1.926C130.736,103.881,131.595,103.016,132.646,103.016 M132.646,101.31
			c-1.996,0-3.613,1.626-3.613,3.632c0,2.004,1.617,3.63,3.613,3.63c1.999,0,3.616-1.626,3.616-3.63
			C136.263,102.936,134.645,101.31,132.646,101.31L132.646,101.31z"/>
	</g>
</g>
<path class="st0" d="M14.524,147.49h186.238c7.304-74.203-15.588-94.848-15.588-94.848s2.574-4.186,9.911-2.165
	c-4.462-8.753-41.612-36.405-60.355-39.804c-0.612-1.771,4.366-2.131,2.476-2.852c-6.159-2.332-23.231-0.908-23.231-0.908
	s-3.51-5.842-7.484-6.489c3.372,3.374-3.459,5.618-3.459,5.618s-7.22-3.647-13.603-3.887c8.418,2.874-1.048,5.077-1.048,5.077
	S43.673,9.486,20.262,47.427c6.777,1.106,4.565,6.032,4.565,6.032S12.253,70.468,11.524,78.544c1.033-0.231,3.668-3.05,4.283-1.911
	C8.042,90.686,9.755,128.67,14.524,147.49z M51.582,97.916c4.339-11.104,19.649-24.435,19.456-15.857
	c8.899-1.569,18.132-18.561,18.132-18.561s6.46,4.275,7.991,9.138c11.748-7.031,17.763-22.624,17.763-22.624
	s9.001,17.663,24.066,25.052c0.6-3.253,2.002-6.425,2.002-6.425c28.839,13.136,10.849,40.121,24.074,60.361
	c-16.643-4.925-30.482-8.97-45.034-10.974c-0.132,5.177-2.484,6.78-14.569,6.78c-12.083,0-14.818-1.744-14.694-7.836
	c-11.548,0.714-24.463,2.716-39.903,6.41C50.946,115.214,48.172,106.646,51.582,97.916z"/>
<g>
	<g>
		<path class="st0" d="M49.459,165.601c0,0-0.251,0.415-0.585,0.415c-1.254,0-16.714,0-20.645,1.505
			c-1.668,0.67-2.17,1.505-2.588,4.431c-0.835,5.347-1.171,9.443-1.171,14.038c-0.166,5.683,0,11.53,1.922,17.045
			c0.669,1.925,2.843,2.342,4.599,2.509c2.841,0.339,3.594,0.418,6.851-0.167c0.669-0.088,0.669-0.417,0.669-1.002
			c0.084-0.753,0.837-22.479,0.837-22.479c0-0.336,0.082-0.587,0.5-0.587c0.251,0,9.191,0,9.443,0c0.333,0,0.333,0.251,0.418,0.502
			l-0.25,31.84c0,0.417-0.505,0.587-0.585,0.587h0.08c-8.103,0.501-21.141,0.413-27.911-0.17c-2.756-0.249-3.758-0.5-4.677-3.009
			c-3.176-8.69-4.013-17.967-4.013-31.501c0-4.18,0.837-12.869,2.008-17.97c0.834-3.845,2.254-3.845,6.265-4.094
			c9.36-0.67,20.31-0.587,30.422,0.169c0.414,0,0.499,0.08,0.414,0.5C51.38,158.497,50.047,163.595,49.459,165.601z"/>
		<path class="st0" d="M98.184,213.566c-0.167,0.083-5.6,2.008-7.604,2.757c-0.337,0.085-0.753,0.085-1.002-0.169
			c-0.166-0.169-12.871-15.543-12.871-15.543c-0.834,0.169-1.339,0.083-5.765,0.919c-0.251,4.431-0.251,7.857-0.418,12.201
			c-0.083,0.086-0.252,0.586-0.501,0.586h-8.525c-0.42,0-0.669-0.419-0.669-0.668c0,0-1.001-55.237-1.001-55.571
			c0-0.416,0.585-0.501,1.001-0.501c12.285-0.671,26.407-0.919,33.595,0.332c1.251,0.169,1.837,0.921,2.34,3.012
			c1.755,8.105,2.508,22.308,0.752,31.502c-0.249,1.422-0.168,2.508-1.671,3.175c-2.424,1.089-5.098,1.756-8.024,2.423
			c4.178,5.933,6.769,9.192,10.614,14.794C98.602,213.148,98.518,213.399,98.184,213.566z M85.062,167.52
			c-0.25-0.416-0.669-0.833-1.171-0.918c-4.01-0.421-7.604,0.169-11.447,0.834c-0.417,0.084-0.586,0.334-0.586,0.504
			c-0.417,8.689-0.833,14.286-0.749,22.98c0,0.5,0.5,0.671,0.835,0.584c4.513-0.169,9.777-1.754,12.949-3.174
			c2.259-0.921,2.508-1.505,2.679-3.012C88.155,180.64,87.572,171.363,85.062,167.52z"/>
		<path class="st0" d="M147.076,209.72c-0.5,2.091-0.752,3.598-2.927,4.098c-5.18,1.084-24.484,1.504-31.005,0
			c-2.17-0.5-2.504-1.087-3.091-3.511c-3.255-12.869-4.01-37.186-0.165-50.475c0.503-1.587,1.171-1.754,2.424-2.006
			c4.176-0.833,27.913-1.083,32.676-0.084c2.088,0.42,2.421,0.67,3.007,2.673C152.008,174.371,150.001,195.849,147.076,209.72z
			 M135.041,167.52c-2.173-0.833-8.94-0.918-11.531-0.168c-1.671,0.588-2.256,1.005-2.758,2.34
			c-2.673,6.604-3.595,26.994,0.752,33.593c0.335,0.502,0.837,1.003,1.507,1.257c2.587,0.834,7.769,1.001,10.943,0.168
			c1.087-0.255,1.423-0.506,1.925-1.508c3.425-6.849,4.263-26.407,1.086-33.842C136.548,168.273,136.212,167.94,135.041,167.52z"/>
		<path class="st0" d="M194.384,194.426c-0.585,2.009-0.752,2.176-2.761,3.18c-1.168,0.585-3.423,1.002-4.511,1.503l11.03,14.039
			c0.083,0,0.419,0.419,0,0.67c-0.333,0.165-8.273,2.506-8.773,2.591c-0.418,0.083-0.586-0.17-0.586-0.17l-12.619-15.375
			c0,0-3.34,0.421-5.349,0.421c-0.502,4.51-0.502,7.85-0.833,12.698c0,0-0.169,0.335-0.418,0.335h-9.027
			c-0.336,0-0.336-0.335-0.336-0.335c-0.415-11.95-0.415-44.29-0.832-56.156c0-0.164,0.166-0.415,0.583-0.415
			c0.419,0,10.279,0.082,10.698,0c0.418,0,0.501,0,0.501,0.415c0,0.336-0.501,33.26-0.501,33.26
			c5.266-0.253,8.69-0.417,12.784-2.591c1.17-0.666,1.923-1.086,2.341-2.839c1.085-5.017,2.425-11.617,2.925-27.83
			c0.083-0.415,0.503-0.415,0.503-0.415h10.528c0.418,0,0.586,0,0.586,0.498C199.148,170.363,196.556,187.327,194.384,194.426z"/>
	</g>
</g>
</svg>
