<?xml version="1.0" encoding="utf-8"?>
<!-- Generator: Adobe Illustrator 19.1.0, SVG Export Plug-In . SVG Version: 6.00 Build 0)  -->
<svg version="1.1" id="Layer_1" xmlns="http://www.w3.org/2000/svg" xmlns:xlink="http://www.w3.org/1999/xlink" x="0px" y="0px"
	 viewBox="0 0 216 216" style="enable-background:new 0 0 216 216;" xml:space="preserve">
<g>
	<g>
		<g>
			<path d="M76,107.7c-1.5,0-2.8-1.2-2.8-2.8c0-1.5,1.2-2.8,2.8-2.8c1.5,0,2.8,1.2,2.8,2.8C78.7,106.5,77.5,107.7,76,107.7z"/>
			<path d="M76,103c1.1,0,1.9,0.9,1.9,1.9c0,1.1-0.9,1.9-1.9,1.9c-1.1,0-1.9-0.9-1.9-1.9C74.1,103.9,74.9,103,76,103 M76,101.3
				c-2,0-3.6,1.6-3.6,3.6c0,2,1.6,3.6,3.6,3.6c2,0,3.6-1.6,3.6-3.6C79.6,102.9,78,101.3,76,101.3L76,101.3z"/>
		</g>
		<g>
			<ellipse cx="132.6" cy="104.9" rx="2.8" ry="2.8"/>
			<path d="M132.6,103c1.1,0,1.9,0.9,1.9,1.9c0,1.1-0.9,1.9-1.9,1.9c-1.1,0-1.9-0.9-1.9-1.9C130.7,103.9,131.6,103,132.6,103
				 M132.6,101.3c-2,0-3.6,1.6-3.6,3.6c0,2,1.6,3.6,3.6,3.6c2,0,3.6-1.6,3.6-3.6C136.3,102.9,134.6,101.3,132.6,101.3L132.6,101.3z"
				/>
		</g>
	</g>
	<path d="M14.5,147.5h186.2c7.3-74.2-15.6-94.8-15.6-94.8s2.6-4.2,9.9-2.2c-4.5-8.8-41.6-36.4-60.4-39.8c-0.6-1.8,4.4-2.1,2.5-2.9
		C131,5.5,114,6.9,114,6.9s-3.5-5.8-7.5-6.5C109.9,3.8,103,6,103,6s-7.2-3.6-13.6-3.9c8.4,2.9-1,5.1-1,5.1S43.7,9.5,20.3,47.4
		c6.8,1.1,4.6,6,4.6,6s-12.6,17-13.3,25.1c1-0.2,3.7-3,4.3-1.9C8,90.7,9.8,128.7,14.5,147.5z M51.6,97.9
		C55.9,86.8,71.2,73.5,71,82.1c8.9-1.6,18.1-18.6,18.1-18.6s6.5,4.3,8,9.1c11.7-7,17.8-22.6,17.8-22.6s9,17.7,24.1,25.1
		c0.6-3.3,2-6.4,2-6.4c28.8,13.1,10.8,40.1,24.1,60.4c-16.6-4.9-30.5-9-45-11c-0.1,5.2-2.5,6.8-14.6,6.8c-12.1,0-14.8-1.7-14.7-7.8
		c-11.5,0.7-24.5,2.7-39.9,6.4C50.9,115.2,48.2,106.6,51.6,97.9z"/>
	<g>
		<g>
			<path d="M49.5,165.6c0,0-0.3,0.4-0.6,0.4c-1.3,0-16.7,0-20.6,1.5c-1.7,0.7-2.2,1.5-2.6,4.4c-0.8,5.3-1.2,9.4-1.2,14
				c-0.2,5.7,0,11.5,1.9,17c0.7,1.9,2.8,2.3,4.6,2.5c2.8,0.3,3.6,0.4,6.9-0.2c0.7-0.1,0.7-0.4,0.7-1c0.1-0.8,0.8-22.5,0.8-22.5
				c0-0.3,0.1-0.6,0.5-0.6c0.3,0,9.2,0,9.4,0c0.3,0,0.3,0.3,0.4,0.5l-0.2,31.8c0,0.4-0.5,0.6-0.6,0.6H49c-8.1,0.5-21.1,0.4-27.9-0.2
				c-2.8-0.2-3.8-0.5-4.7-3c-3.2-8.7-4-18-4-31.5c0-4.2,0.8-12.9,2-18c0.8-3.8,2.3-3.8,6.3-4.1c9.4-0.7,20.3-0.6,30.4,0.2
				c0.4,0,0.5,0.1,0.4,0.5C51.4,158.5,50,163.6,49.5,165.6z"/>
			<path d="M98.2,213.6c-0.2,0.1-5.6,2-7.6,2.8c-0.3,0.1-0.8,0.1-1-0.2c-0.2-0.2-12.9-15.5-12.9-15.5c-0.8,0.2-1.3,0.1-5.8,0.9
				c-0.3,4.4-0.3,7.9-0.4,12.2c-0.1,0.1-0.3,0.6-0.5,0.6h-8.5c-0.4,0-0.7-0.4-0.7-0.7c0,0-1-55.2-1-55.6c0-0.4,0.6-0.5,1-0.5
				c12.3-0.7,26.4-0.9,33.6,0.3c1.3,0.2,1.8,0.9,2.3,3c1.8,8.1,2.5,22.3,0.8,31.5c-0.2,1.4-0.2,2.5-1.7,3.2c-2.4,1.1-5.1,1.8-8,2.4
				c4.2,5.9,6.8,9.2,10.6,14.8C98.6,213.1,98.5,213.4,98.2,213.6z M85.1,167.5c-0.2-0.4-0.7-0.8-1.2-0.9c-4-0.4-7.6,0.2-11.4,0.8
				c-0.4,0.1-0.6,0.3-0.6,0.5c-0.4,8.7-0.8,14.3-0.7,23c0,0.5,0.5,0.7,0.8,0.6c4.5-0.2,9.8-1.8,12.9-3.2c2.3-0.9,2.5-1.5,2.7-3
				C88.2,180.6,87.6,171.4,85.1,167.5z"/>
			<path d="M147.1,209.7c-0.5,2.1-0.8,3.6-2.9,4.1c-5.2,1.1-24.5,1.5-31,0c-2.2-0.5-2.5-1.1-3.1-3.5c-3.3-12.9-4-37.2-0.2-50.5
				c0.5-1.6,1.2-1.8,2.4-2c4.2-0.8,27.9-1.1,32.7-0.1c2.1,0.4,2.4,0.7,3,2.7C152,174.4,150,195.8,147.1,209.7z M135,167.5
				c-2.2-0.8-8.9-0.9-11.5-0.2c-1.7,0.6-2.3,1-2.8,2.3c-2.7,6.6-3.6,27,0.8,33.6c0.3,0.5,0.8,1,1.5,1.3c2.6,0.8,7.8,1,10.9,0.2
				c1.1-0.3,1.4-0.5,1.9-1.5c3.4-6.8,4.3-26.4,1.1-33.8C136.5,168.3,136.2,167.9,135,167.5z"/>
			<path d="M194.4,194.4c-0.6,2-0.8,2.2-2.8,3.2c-1.2,0.6-3.4,1-4.5,1.5l11,14c0.1,0,0.4,0.4,0,0.7c-0.3,0.2-8.3,2.5-8.8,2.6
				c-0.4,0.1-0.6-0.2-0.6-0.2l-12.6-15.4c0,0-3.3,0.4-5.3,0.4c-0.5,4.5-0.5,7.8-0.8,12.7c0,0-0.2,0.3-0.4,0.3h-9
				c-0.3,0-0.3-0.3-0.3-0.3c-0.4-12-0.4-44.3-0.8-56.2c0-0.2,0.2-0.4,0.6-0.4c0.4,0,10.3,0.1,10.7,0c0.4,0,0.5,0,0.5,0.4
				c0,0.3-0.5,33.3-0.5,33.3c5.3-0.3,8.7-0.4,12.8-2.6c1.2-0.7,1.9-1.1,2.3-2.8c1.1-5,2.4-11.6,2.9-27.8c0.1-0.4,0.5-0.4,0.5-0.4
				h10.5c0.4,0,0.6,0,0.6,0.5C199.1,170.4,196.6,187.3,194.4,194.4z"/>
		</g>
	</g>
</g>
</svg>
