<svg id="Layer_1" data-name="Layer 1" xmlns="http://www.w3.org/2000/svg" viewBox="0 0 232.21 36.85"><title>icon</title><path d="M58.54,13.09V49.5H54.42V19.36L40.94,36.68,27.25,19.36V49.5H23.12V13.09h4.79l13,17.27L53.76,13.09h4.79Z" transform="translate(-23.12 -13.09)"/><path d="M71.58,17.05V29.26H91.82v4H71.58V45.54H94.24v4H67.45V13.09H94.24v4H71.58Z" transform="translate(-23.12 -13.09)"/><path d="M132.3,13.09V49.5h-4.78L105,18.76V49.5h-4.12V13.09h4.79l22.49,30.63V13.09h4.13Z" transform="translate(-23.12 -13.09)"/><path d="M171.73,13.09V33.83q0,7.26-4.32,11.69a16.29,16.29,0,0,1-22.33,0q-4.32-4.43-4.32-11.69V13.09h4.13V33.94q0,5.89,3.52,9.19a11,11,0,0,0,7.81,2.8,11.23,11.23,0,0,0,7.86-2.8q3.52-3.24,3.52-9.19V13.09h4.13Z" transform="translate(-23.12 -13.09)"/><rect x="168.21" y="0.3" width="64" height="5.35" rx="2.67" ry="2.67"/><rect x="168.21" y="14.75" width="64" height="5.35" rx="2.67" ry="2.67"/><rect x="168.21" y="29.02" width="64" height="5.35" rx="2.67" ry="2.67"/></svg>